<?xml version="1.0" encoding="utf-8"?>
<!-- Generator: Adobe Illustrator 26.3.0, SVG Export Plug-In . SVG Version: 6.00 Build 0)  -->
<svg version="1.1"
	 id="svg3209" xmlns:dc="http://purl.org/dc/elements/1.1/" xmlns:cc="http://creativecommons.org/ns#" xmlns:rdf="http://www.w3.org/1999/02/22-rdf-syntax-ns#" xmlns:inkscape="http://www.inkscape.org/namespaces/inkscape" xmlns:svg="http://www.w3.org/2000/svg" xmlns:sodipodi="http://sodipodi.sourceforge.net/DTD/sodipodi-0.dtd"
	 xmlns="http://www.w3.org/2000/svg" xmlns:xlink="http://www.w3.org/1999/xlink" x="0px" y="0px" viewBox="0 0 60 60"
	 style="enable-background:new 0 0 60 60;" xml:space="preserve">
<style type="text/css">
	.st0{fill:#787775;}
	.st1{fill:#A3A09F;}
	.st2{fill:#747372;}
	.st3{fill:#F3D427;}
	.st4{fill:#1C1C1C;}
	.st5{fill:#555453;}
	.st6{fill:#7B7877;}
	.st7{fill:#807F7D;}
	.st8{fill:#747474;}
	.st9{fill:#6E6A69;}
	.st10{fill:#474442;}
	.st11{fill:#FBE036;}
	.st12{fill:#EB5C5D;}
	.st13{fill:none;stroke:#FDFDFD;stroke-width:0.25;stroke-miterlimit:10;}
	.st14{fill:#CFCECE;}
	.st15{fill:#C2C1C1;}
	.st16{fill:#B7B6B6;}
	.st17{opacity:0.4;fill:#A3A09F;enable-background:new    ;}
	.st18{fill:#9A9795;}
</style>
<sodipodi:namedview  bordercolor="#666666" borderopacity="1.0" fit-margin-bottom="0" fit-margin-left="0" fit-margin-right="0" fit-margin-top="0" id="base" inkscape:current-layer="layer1" inkscape:cx="56.727193" inkscape:cy="-67.066627" inkscape:document-units="px" inkscape:pageopacity="0.0" inkscape:pageshadow="2" inkscape:window-height="1148" inkscape:window-maximized="1" inkscape:window-width="1920" inkscape:window-x="-8" inkscape:window-y="-8" inkscape:zoom="1.4" pagecolor="#ffffff" showgrid="false">
	</sodipodi:namedview>
<g id="Capa_2_00000132050426246813580770000016394527427094962338_">
	<g id="Capa_1-2">
		<rect x="11.8" y="53.1" class="st0" width="36.1" height="1.4"/>
		<polygon class="st1" points="47.9,8.8 47.9,53.1 42.6,53.1 42.6,49.9 45.5,49.9 45.5,10.2 14.1,10.2 14.1,49.9 17.3,49.9 
			17.3,53.1 11.8,53.1 11.8,8.8 		"/>
		<path class="st2" d="M24.5,0c-8.3,0.2-12.2,7.5-12.2,7.5h-1.5c0,0,3.9-6.5,10.6-7.5H24.5z"/>
		<path class="st3" d="M21.5,0c-6.7,1-10.6,7.5-10.6,7.5V0H21.5z"/>
		<path class="st4" d="M49.2,0v7.5H12.4c0,0,3.9-7.3,12.2-7.5H49.2z"/>
		<polygon class="st5" points="49.2,7.5 47.9,8.8 11.8,8.8 10.8,7.5 		"/>
		<rect x="20.7" y="44.7" class="st6" width="18.4" height="5.2"/>
		<rect x="39" y="10.2" class="st7" width="6.5" height="39.7"/>
		<rect x="20.7" y="10.2" class="st8" width="18.4" height="5.4"/>
		<rect x="17.3" y="49.9" class="st9" width="25.4" height="3.3"/>
		<rect x="17.3" y="8.8" class="st10" width="25.4" height="1.4"/>
		<path class="st3" d="M20.7,10.2v6.1c-1.9-1.5-4.2-2.6-6.5-3.3v-2.9L20.7,10.2z"/>
		<path class="st4" d="M20.7,16.3v6.4c0,0-3.7-3.4-6.5-4.9v-4.8C16.5,13.7,18.7,14.8,20.7,16.3z"/>
		<path class="st11" d="M20.7,22.7v10.8c-0.7-7.8-6.5-13.6-6.5-13.6v-2.1C16.9,19.4,20.7,22.7,20.7,22.7z"/>
		<path class="st4" d="M20.7,33.5v6.1c-0.6,5.7-5.5,10.2-5.5,10.2h-1v-30C14.1,19.9,19.9,25.7,20.7,33.5z"/>
		<path class="st11" d="M20.7,39.7v10.2h-5.5C15.1,49.9,20.1,45.4,20.7,39.7z"/>
		<circle class="st12" cx="43.1" cy="3.7" r="0.9"/>
		<circle class="st13" cx="43.1" cy="3.7" r="1.3"/>
		<polygon class="st1" points="39,43.2 39,44.7 20.7,44.7 20.7,43.2 22.2,43.2 23.3,37.5 36.3,37.5 37.5,43.2 		"/>
		<rect x="23.3" y="20.9" class="st14" width="13" height="16.6"/>
		<path class="st15" d="M23.4,20.9v16.6l-1.1,5.6h-1.6v-3.5c0.1-0.7,0.1-1.4,0-2.1v-22L23.4,20.9z"/>
		<polygon class="st16" points="39,15.6 36.3,20.9 23.3,20.9 20.7,15.6 		"/>
		<polygon class="st15" points="39,15.6 39,43.2 37.5,43.2 36.3,37.5 36.3,20.9 		"/>
		<rect x="20.7" y="15.6" class="st17" width="18.4" height="29.1"/>
		<polyline class="st18" points="12.7,54.6 12.7,60 18.2,60 18.2,54.6 		"/>
		<polyline class="st18" points="41.5,54.6 41.5,60 47.1,60 47.1,54.6 		"/>
	</g>
</g>
</svg>
